<svg xmlns="http://www.w3.org/2000/svg" width="90" height="24"><g fill="none" fill-rule="nonzero"><path fill="#FFF" d="m30.084 0 1.602.006a9.8 9.8 0 0 1 6.325 3.313 1.489 1.489 0 0 1-.013 1.959c-.281.312-.68.493-1.103.497a1.486 1.486 0 0 1-1.135-.512 6.828 6.828 0 0 0-4.1-2.266l-.436-.065a6.555 6.555 0 0 0-.381-.022v4.319h.191a8.45 8.45 0 0 1 7.122 3.879c.003-.01.042.053.115.186.085.137.164.276.24.418l.06.112c.045.086.098.203.158.351l.01.02c.15.337.279.682.385 1.034l.042.14.045.15c.08.332.133.585.16.76.027.176.054.448.082.817a8.412 8.412 0 0 1-.983 4.484l-.044.077c-.07.127-.228.38-.49.775-.014.02-.046.063-.095.125a8.426 8.426 0 0 1-1.633 1.655c-.065.05-.118.092-.162.123a8.383 8.383 0 0 1-2.175 1.146c-.5.168-.875.278-1.126.33-.182.039-.434.094-.746.127l-.035.006c-.09.015-.345.056-.958.056h-1.547c-2.885 0-5.63-1.235-7.711-3.447a1.5 1.5 0 0 1-.43-.993A11.971 11.971 0 0 1 12 24C5.373 24 0 18.628 0 12 0 5.373 5.373 0 12 0c4.174 0 7.85 2.131 10 5.364l.017-.035.304-.626a8.418 8.418 0 0 1 2.295-2.877l.402-.303a8.31 8.31 0 0 1 4.32-1.512C29.373.009 29.463 0 29.5 0h.584ZM59.028 2.15c.597 0 1.086.478 1.097 1.095v1.423c.053-.008.106-.012.16-.012h.862c.192 0 .373.048.532.135a3.258 3.258 0 0 1 1.43-.292c1.224 0 2.112.513 2.627 1.427.7-.88 1.745-1.423 2.87-1.423.5-.007.99.097 1.436.297.161-.092.348-.144.544-.144h.865c.233 0 .45.073.628.198.175-.122.39-.194.621-.194h.867c.192 0 .375.048.533.136.448-.202.941-.304 1.444-.293 1.228.004 2.117.524 2.626 1.447.692-.9 1.768-1.458 3.033-1.458.946 0 1.851.236 2.509.911l.105.115c.66-.636 1.552-1.015 2.572-1.015 2.28 0 3.611 1.589 3.611 4.117 0 .397-.211.744-.527.936l.255.687c.184.448.05.965-.329 1.266-.84.709-1.889.988-3.01.988-.997 0-1.857-.335-2.502-.914l-.066.063c-.693.571-1.589.85-2.628.85-1.014 0-1.9-.353-2.566-.954-.13.456-.552.79-1.05.79h-.945c-.605 0-1.096-.49-1.096-1.096V8.499c0-.186 0-.27-.003-.369-.007-.33-.035-.545-.079-.658-.017.002-.04.007-.084.007-.263 0-.63.263-.63.315v3.441a1.095 1.095 0 0 1-1.095 1.095H72.7a1.09 1.09 0 0 1-.617-.19c-.177.126-.396.2-.632.2h-.944c-.186 0-.36-.045-.514-.127-.429.186-.896.285-1.374.283-.947 0-1.785-.33-2.428-.888a1.097 1.097 0 0 1-1.03.722h-.944c-.604 0-1.095-.49-1.095-1.095V8.318l-.003-.187c-.008-.33-.036-.544-.082-.662a.224.224 0 0 1-.081.01c-.264 0-.63.262-.63.315v3.46c-.01.598-.5 1.076-1.097 1.076h-.943c-.226 0-.444-.07-.627-.197a1.096 1.096 0 0 1-.631.199h-.943c-.183 0-.356-.045-.508-.125-.43.189-.9.29-1.38.289-2.012 0-3.527-1.478-3.742-3.498l-.018-.208-.03.197c-.044.317-.066.57-.066.76v1.488a1.095 1.095 0 0 1-1.097 1.095H50.3c-.605 0-1.096-.49-1.096-1.095v-.485a5.02 5.02 0 0 1-1.406 1.155c.129.062.256.134.38.212.241.161.408.411.464.686.065.307-.006.627-.178.856l-.49.695c-.318.439-.909.58-1.447.302a2.179 2.179 0 0 0-.886-.3c-.299 0-.396.07-.396.18 0 .004.162.116.69.267.84.222 1.536.548 2.07.972v-.81c.01-.6.5-1.077 1.097-1.077h.945a1.096 1.096 0 0 1 1.095 1.095v2.845c0 .52.024.776.081.924l.001.004a.205.205 0 0 1 .084-.012c.264 0 .63-.262.63-.313v-3.448a1.095 1.095 0 0 1 1.095-1.095h.939c.228-.002.45.068.634.198.182-.128.401-.198.628-.198h.86c.152 0 .297.03.43.085a2.76 2.76 0 0 1 1.142-.247c.28.007.558.046.83.116.052.014.102.03.15.051l.12-.005h.964c.468-.01.891.28 1.042.698l.771 1.973.797-1.97a1.09 1.09 0 0 1 1.022-.701h.95c.325-.003.633.137.842.38a3.7 3.7 0 0 1 1.953-.537c.724 0 1.351.16 1.872.459.198-.19.466-.3.753-.302h.965c.468-.01.892.28 1.043.698l.784 2.011.803-2.009a1.085 1.085 0 0 1 1.023-.7h.95l.073.002c.53.04.952.45 1.01.973.013.11.01.221-.01.33l-.061.213-2.468 5.923c-.608 1.408-1.64 2.35-2.92 2.57l-.17.015h-.019a1.107 1.107 0 0 1-.831-.401l-.514-.627a1.097 1.097 0 0 1 .392-1.69l-.179-.091c-.738.439-1.594.62-2.496.62-1.65 0-2.924-.916-3.474-2.336l-.642 1.505c-.173.407-.573.67-1.01.668h-.913a1.102 1.102 0 0 1-1.002-.67l-1.702-4.042a1.246 1.246 0 0 1-.74-.165c.018.012.042.018-.032.02-.192 0-.318.28-.318.785v2.977a1.095 1.095 0 0 1-1.095 1.095h-.945c-.234 0-.451-.073-.63-.198-.186.132-.41.203-.628.198h-.842a1.1 1.1 0 0 1-.55-.134 3.25 3.25 0 0 1-1.432.291c-1.184 0-2.054-.48-2.576-1.339-.642.833-1.697 1.34-2.946 1.34-1.398-.016-2.69-.493-3.523-1.389-.327-.402-.327-.979-.043-1.324l.496-.709c.182-.257.465-.423.718-.45.356-.06.718.061.925.281.401.375.925.593 1.475.613a.354.354 0 0 0 .262-.103c.068-.068.105-.161.1-.302.003-.203-.108-.284-.922-.505-1.864-.508-3.008-1.698-3.008-3.322 0-1.101.518-1.959 1.315-2.496-1.694-.826-2.864-2.628-2.864-4.696 0-2.84 2.205-5.17 4.944-5.17 1.853 0 3.46 1.065 4.309 2.631a1.07 1.07 0 0 1 .486-.115h.86c.152 0 .296.03.428.085.349-.16.734-.246 1.134-.247.285.004.568.043.808.108.294.066.537.247.688.488a3.572 3.572 0 0 1 1.964-.596c.274-.004.544.025.807.086V3.244c0-.606.49-1.095 1.095-1.095h.943ZM23.853 14.034l-.02-.023a11.921 11.921 0 0 1-1.48 4.062c.146-.048.303-.073.466-.073.429.006.835.192 1.106.494 1.49 1.588 3.388 2.47 5.375 2.515h.727l-.001-4.406h-.186a8.34 8.34 0 0 1-5.987-2.569l-.02-.023Zm44.845-6.555c-.43 0-.71.383-.71 1.02 0 .681.236 1.016.71 1.018.379 0 .713-.432.713-1.018 0-.746-.232-1.02-.713-1.02Zm-12.421 0c-.432 0-.713.383-.713 1.02 0 .685.234 1.016.713 1.018.378 0 .713-.432.713-1.018 0-.746-.233-1.02-.713-1.02ZM45.506 5.123c-.969 0-1.813.96-1.813 2.195 0 1.234.845 2.194 1.813 2.194s1.811-.958 1.811-2.194-.843-2.195-1.811-2.195ZM81.2 7.466c-.463 0-.711.357-.711 1.02 0 .764.216 1.02.753 1.02a1.42 1.42 0 0 0 .923-.282 1.09 1.09 0 0 1 .479-.243 4.747 4.747 0 0 1-.001-.952l-.047-.002a1.133 1.133 0 0 1-.679-.315l-.081-.09c-.107-.133-.183-.156-.636-.156Z" opacity=".7"/><path fill="#453C90" d="M57.99 10.708c-.46.502-1.11.788-1.793.788-1.604 0-2.768-1.262-2.768-2.997 0-1.853 1.438-2.997 2.768-2.997.68-.01 1.333.27 1.793.77V3.244c0-.053.042-.096.095-.096h.943c.053 0 .096.043.097.096v7.993a.097.097 0 0 1-.097.095h-.943a.095.095 0 0 1-.095-.095v-.53zm-3.426-2.21c0 .97.444 2.014 1.713 2.02 1.072 0 1.713-1.028 1.713-2.02 0-1.265-.64-2.02-1.713-2.02-1.182 0-1.713 1.048-1.713 2.02zm5.722 2.832a.096.096 0 0 1-.096-.095V5.75c0-.052.043-.095.096-.095h.865c.05 0 .091.038.096.087l.054.543a2.327 2.327 0 0 1 1.809-.787c1.424 0 2.147.93 2.147 2.76v2.977a.097.097 0 0 1-.097.095h-.943a.095.095 0 0 1-.095-.095V8.499c0-.476 0-1.003-.153-1.391-.166-.43-.483-.63-1.013-.63-.657 0-1.63.552-1.63 1.316v3.44a.097.097 0 0 1-.097.096h-.943zM75.3 14.888a.095.095 0 0 1 .089.09.128.128 0 0 1 0 .044l-2.463 5.91c-.483 1.12-1.255 1.823-2.173 1.982h-.002a.1.1 0 0 1-.074-.035l-.513-.626a.097.097 0 0 1 .051-.155c.89-.22 1.407-.709 1.724-1.63l-2.288-5.448a.095.095 0 0 1 0-.09.101.101 0 0 1 .081-.042h.986c.04-.001.076.024.09.061l1.704 4.372 1.748-4.373a.094.094 0 0 1 .09-.06h.95zM45.506 3.148c2.176 0 3.947 1.87 3.947 4.17 0 2.299-1.773 4.178-3.947 4.178-2.174 0-3.944-1.88-3.944-4.178 0-2.3 1.77-4.17 3.944-4.17zm2.811 4.17c0-1.761-1.26-3.195-2.811-3.195-1.552 0-2.813 1.434-2.813 3.195 0 1.76 1.263 3.194 2.813 3.194 1.55 0 2.811-1.431 2.811-3.194zm5.66 7.57a.096.096 0 0 1 .097.095v5.484a.095.095 0 0 1-.097.095h-.863a.094.094 0 0 1-.096-.086l-.057-.543a2.321 2.321 0 0 1-1.808.786c-1.424 0-2.147-.927-2.147-2.759v-2.977a.097.097 0 0 1 .097-.095h.945a.096.096 0 0 1 .095.095v2.741c0 .497 0 1.003.15 1.393.169.428.485.627 1.016.627.656 0 1.63-.551 1.63-1.313v-3.448a.095.095 0 0 1 .095-.095h.943zm10.428.042a.097.097 0 0 1 .008.092l-2.342 5.482a.096.096 0 0 1-.088.058h-.906a.097.097 0 0 1-.089-.058L58.68 15.02a.095.095 0 0 1 .089-.132h.984c.04-.001.076.024.09.061l1.686 4.318 1.746-4.32a.094.094 0 0 1 .089-.06h.96c.033 0 .063.016.082.043zm2.703-.2c1.684 0 2.611 1.108 2.611 3.125a.095.095 0 0 1-.095.097H65.48c.07.886.528 1.798 1.628 1.798.808 0 1.53-.245 1.974-.672a.1.1 0 0 1 .09-.025c.032.007.057.03.068.06l.276.74a.098.098 0 0 1-.027.108c-.74.631-1.703.764-2.381.764-1.656 0-2.77-1.205-2.77-2.997 0-1.739 1.165-2.997 2.77-2.997zm-1.617 2.407h3.077c-.167-.97-.634-1.423-1.46-1.423s-1.45.554-1.617 1.423zM50.3 11.33a.095.095 0 0 1-.096-.095V5.759c0-.052.043-.095.096-.095h.865c.05 0 .09.037.095.086l.05.498a1.688 1.688 0 0 1 1.397-.746c.204.003.406.03.602.083.044.01.075.049.074.093v.857a.095.095 0 0 1-.143.083.887.887 0 0 0-.58-.145c-1.226 0-1.32 1.367-1.32 1.784v2.978a.095.095 0 0 1-.097.095H50.3zm36.088-5.828C88.073 5.502 89 6.607 89 8.619a.095.095 0 0 1-.096.095h-4.143c.069.888.529 1.798 1.628 1.798.819 0 1.526-.25 1.978-.673a.097.097 0 0 1 .157.035l.276.74c.02.041.008.09-.03.117-.74.633-1.702.765-2.381.765-1.656 0-2.77-1.208-2.77-2.997 0-1.738 1.165-2.997 2.77-2.997zm-1.617 2.397h3.076c-.166-.97-.633-1.422-1.46-1.422-.826 0-1.45.555-1.616 1.422zm-39.1 7.868c1.715.452 2.583 1.32 2.582 2.585-.007 1.394-1.081 2.367-2.612 2.367-1.143-.012-2.174-.393-2.758-1.019a.095.095 0 0 1 0-.12l.494-.705a.097.097 0 0 1 .069-.04.083.083 0 0 1 .074.024c.577.54 1.332.854 2.123.882.375.013.738-.13 1.003-.394.265-.265.408-.627.395-1 .009-.95-.745-1.231-1.66-1.48-1.468-.4-2.271-1.239-2.271-2.357 0-1.458 1.312-2.133 2.531-2.133.7.003 1.386.2 1.98.57a.1.1 0 0 1 .042.063.09.09 0 0 1-.015.072l-.483.684a.1.1 0 0 1-.126.03 3.193 3.193 0 0 0-1.398-.44c-.688 0-1.396.357-1.396 1.158-.017.772.805 1.077 1.426 1.253zm12.574-.957c.044.011.074.05.074.095v.86c0 .035-.019.068-.05.085a.101.101 0 0 1-.095 0 .896.896 0 0 0-.582-.144c-1.222 0-1.318 1.366-1.318 1.784v2.977a.095.095 0 0 1-.095.095h-.945a.095.095 0 0 1-.096-.095v-5.484a.095.095 0 0 1 .096-.095h.865c.05 0 .091.037.096.086l.05.497a1.688 1.688 0 0 1 1.397-.746c.203.005.406.034.603.085zm24.666-4.851c.03.011.053.038.059.07l.244.74a.097.097 0 0 1-.03.104c-.501.413-1.172.623-1.992.623-1.678 0-2.85-1.27-2.85-3.008s1.202-2.997 2.86-2.997c.412 0 1.433.08 1.964.813a.095.095 0 0 1 0 .111l-.398.575a.09.09 0 0 1-.074.042.133.133 0 0 1-.08-.037c-.395-.49-.855-.529-1.415-.529-1.264 0-1.711 1.088-1.711 2.02 0 1.282.623 2.019 1.71 2.019a2.438 2.438 0 0 0 1.625-.529.09.09 0 0 1 .088-.017zm-14.291 1.537c-1.605 0-2.77-1.268-2.77-2.997 0-1.853 1.437-2.997 2.77-2.997.691-.01 1.353.28 1.813.795l.057-.555a.095.095 0 0 1 .095-.087h.865c.053 0 .096.043.096.095v5.495a.095.095 0 0 1-.096.096h-.944a.095.095 0 0 1-.096-.096v-.528c-.46.499-1.11.781-1.79.779zm-1.633-2.997c0 .97.449 2.013 1.71 2.018 1.073 0 1.713-1.027 1.713-2.018 0-1.266-.64-2.02-1.713-2.02-1.18 0-1.71 1.047-1.71 2.02zm8.543-2.997c1.426 0 2.148.925 2.14 2.755v2.978a.095.095 0 0 1-.095.095h-.944a.095.095 0 0 1-.096-.095V8.499c0-.476 0-1.003-.15-1.391-.168-.43-.485-.63-1.016-.63-.655 0-1.63.552-1.63 1.316v3.44a.095.095 0 0 1-.095.096H72.7a.095.095 0 0 1-.095-.095V5.754c0-.053.043-.095.095-.095h.87c.05 0 .092.037.096.086l.055.543a2.33 2.33 0 0 1 1.81-.786zM10.216 22.848a6.746 6.746 0 0 1-.454-.08 10.903 10.903 0 0 1-2.98-1.086l.033-.192c.235-1.486.48-3.02 1.093-4.409.144-.15.248-.334.3-.536l2.342.075a59.523 59.523 0 0 1 .457.007c.19-.01.373-.072.532-.178.17.108.367.165.568.164.28.002.547-.11.742-.313.425.21.833.388 1.348.388h.108a9.214 9.214 0 0 0 1.69-.3 37.155 37.155 0 0 0 1.741-.47c-.455.51-.95.982-1.479 1.413a14.183 14.183 0 0 1-2.379 1.39c-.449.223-.859.517-1.215.872-.235.26-.435.551-.593.865-.039.068-.076.137-.117.207a5.7 5.7 0 0 1-.253.382c-.185.24-.337.505-.45.786-.12.343-.225.699-.326 1.04l-.021.068c-.232-.023-.46-.055-.687-.093zm4.477-4.023c.83 1.134 2.051 1.804 3.305 2.388a10.954 10.954 0 0 1-6.633 1.767c.096-.327.197-.664.31-.988.1-.242.232-.469.393-.675.098-.132.19-.27.275-.416l.12-.213c.139-.277.313-.535.52-.766.32-.319.69-.584 1.094-.785l.616-.312zM7.2 6.405a27.19 27.19 0 0 0-.459-4.066c3.88-2.11 8.63-1.7 12.098 1.045-.07.071-.137.146-.199.225-.164.23-.294.485-.384.754l-.106.266-.146.332a10.696 10.696 0 0 1-.883 1.717c-.282.391-.605.75-.962 1.072-.232.223-.47.454-.687.704-.057.075-.115.154-.177.23l-.427-.389a4.925 4.925 0 0 0-.098-.179.718.718 0 0 1-.143-.393c.014-.14.214-.298.368-.425.044-.037.089-.073.126-.107a.226.226 0 0 0 .02-.323.226.226 0 0 0-.321-.02c-.034.03-.073.062-.114.095-.216.168-.478.393-.53.703-.019.25.05.497.196.699l.025.048a5.9 5.9 0 0 0-.14.207c-.222.345-.385.567-.604.536-.562-.085-.68.233-.794.536-.113.304-.196.735.381.972l.16.068c.21.096.427.173.65.232.123.03.25.052.377.063l.517.021c.354.018.708.036 1.063.061.484.023.964.104 1.429.243.283.09.459.372.593.625.22.415.43.869.684 1.474.182.413.393.813.632 1.195l.089.149a3.309 3.309 0 0 1-.365.178 21.27 21.27 0 0 1-3.215.996 8.713 8.713 0 0 1-1.581.28c-.447.027-.806-.138-1.214-.33.023-.088.035-.178.036-.268a.936.936 0 0 0-.739-.95c.013-.187.028-.383.048-.562.045-.35.067-.702.065-1.054-.005-.191-.017-.382-.03-.573-.012-.22-.028-.44-.028-.661v-.11c-.004-.655-.01-1.629-.739-1.965a3.183 3.183 0 0 0-1.58-.225c-.138.011-.276.031-.412.06-.284.05-.613.108-.79.014-.117-.061-.16-.25-.186-.447a4.703 4.703 0 0 1-.03-.66v-.151c-.002-.31-.021-.618-.043-.917l-.021-.357c-.007-.116-.018-.236-.027-.357a3.977 3.977 0 0 1 0-1.072c.1-.506.183-1.006.252-1.43a.227.227 0 1 0-.448-.075c-.073.42-.152.917-.25 1.415-.06.396-.063.798-.01 1.194l.024.357c.007.113.023.234.023.357.02.297.041.599.041.894v.15c-.005.238.006.477.034.714.028.197.113.624.435.786.323.163.72.092 1.074.03.117-.025.235-.043.354-.055.465-.052.936.015 1.37.195.477.211.477 1.01.477 1.546v.114c.002.229.016.455.03.684.013.186.029.379.029.558 0 .332-.021.663-.062.993-.02.193-.04.393-.052.593a.948.948 0 0 0-.807.967c0 .165.04.328.118.473a.566.566 0 0 1-.336.068l-2.64-.095a1.215 1.215 0 0 0-.178-.536c-.652-1.425-.829-3.026-1.006-4.577l-.032-.26c.134-1.43.193-2.864.177-4.3zm2.526.221H9.72c-.01.185 0 .37.029.552.012.111.09.531.19.58.098.047.352 0 .453 0h1.154v-.88h-.26V5.765h-1.162c-.13 0-.182-.027-.25.06-.134.169-.14.598-.15.801zM6.064 15.21a97.986 97.986 0 0 0-.067 1.994c-.636-.07-1.24-.367-1.24-.994s.643-.945 1.307-1zm.64.032c.23.036.451.114.653.232a.84.84 0 0 1 .44.736c0 .577-.548.892-1.154.981.01-.664.032-1.317.06-1.949zm13.802-.598 2.297-.58a10.97 10.97 0 0 1-1.213 3.325 10.658 10.658 0 0 0-.93-1.173 1.75 1.75 0 0 0-.497-.333c-.103-.05-.2-.11-.293-.178a1.063 1.063 0 0 1-.287-.483c.32-.153.617-.347.886-.578a.132.132 0 0 0 .037 0zm.542-1.417c-.235.375-.51.721-.822 1.034a3.205 3.205 0 0 1-.39.297 7.14 7.14 0 0 1-.091-.156 9.109 9.109 0 0 1-.612-1.148 20.117 20.117 0 0 0-.708-1.512c-.085-.17-.19-.329-.313-.473l-.37-4.717c.248-.456.472-.926.669-1.407l.142-.331c.04-.091.077-.188.115-.282.075-.228.183-.443.318-.64.061-.075.126-.147.195-.214a10.977 10.977 0 0 1 3.72 6.826l-.142.211a137.89 137.89 0 0 1-1.534 2.262c-.063.082-.12.166-.177.25zm-5.009-2.594c-.36-.025-.72-.043-1.08-.065l-.376-.017.09-.143c.34-.58.724-1.13 1.148-1.65.204-.235.436-.458.66-.673.306-.284.593-.59.856-.916l.295 3.751-.048-.021a6.297 6.297 0 0 0-1.545-.266zm5.383 2.853.17-.245c.467-.67.926-1.356 1.376-2.028.018.254.032.524.032.79 0 .524-.039 1.048-.113 1.567l-1.857.468c.139-.18.266-.373.392-.552zm-6.405-4.429c-.26.363-.5.74-.733 1.111l-.198.316a4.413 4.413 0 0 1-.51-.19l-.156-.072c-.199-.082-.234-.11-.13-.388.105-.279.105-.279.303-.25.52.075.83-.393 1.05-.736l.055-.084.32.293zm-8.293 5.72c.034-.705.09-1.418.146-2.125.11.793.292 1.575.547 2.335a2.464 2.464 0 0 0-.693-.21zM4.666 17.11a31.537 31.537 0 0 1 1.366 4.13 11.018 11.018 0 0 1-4.47-5.767l.01-.014.136-.093c.23-.136.437-.306.617-.504.216.163.432.325.64.504.153.125.306.25.462.372.162.12.332.23.508.328.134.079.258.154.377.238.021.297.147.577.354.79v.016zM1.44 9.814a3.206 3.206 0 0 0-.177-.158 10.987 10.987 0 0 1 2.303-4.702l.042.78c.068 1.307.137 2.661.268 3.987l.012.101c.035.32.027.431-.103.499a1.23 1.23 0 0 1-.467.084c-.066.003-.13.014-.19.014-.095.01-.2.03-.31.052-.235.043-.503.096-.629 0-.256-.202-.506-.434-.749-.657zm-.285.357c.243.225.492.455.758.657l.044.03.085 2.784c.002.088.011.182.022.277.022.16.022.322 0 .482-.046.211-.367.427-.6.585l-.041.026a10.972 10.972 0 0 1-.268-4.841zm20.153 7.605.03.05a11.056 11.056 0 0 1-2.9 3.102c-1.262-.595-2.52-1.237-3.335-2.323.5-.264.979-.568 1.431-.91a13.22 13.22 0 0 0 1.56-1.491c.192-.204.383-.406.578-.604.167-.06.333-.123.496-.191.079.258.228.488.43.665.112.081.23.153.355.212.139.058.268.14.38.24.354.393.68.811.975 1.25zm-9.749-2.145a.519.519 0 0 1 .16-.385.51.51 0 0 1 .39-.14.583.583 0 0 1 .38.131c.11.1.17.245.161.394 0 .303-.244.55-.545.55a.548.548 0 0 1-.546-.55zm-4.92 2.022c.231-.027.458-.085.675-.173a14.826 14.826 0 0 0-.627 2.361c-.013-.29-.027-.582-.036-.87-.012-.443-.012-.88-.012-1.318zm-.679-4.288c.041-.152.082-.304.126-.446l.168-.586c-.065.802-.129 1.613-.168 2.42a2.745 2.745 0 0 0-.664.124c.097-.172.18-.351.248-.536a13.3 13.3 0 0 0 .29-.976zm.052 5.626c.009.275.021.552.033.825a27.86 27.86 0 0 0-.79-2.336c.238.096.488.156.743.178-.002.44 0 .885.014 1.333zM4.06 5.697c-.022-.41-.044-.82-.068-1.234a11.079 11.079 0 0 1 2.142-1.785c.226 1.233.362 2.481.405 3.734.036 1.293-.042 2.608-.141 3.904L5.69 12.79c-.044.152-.085.307-.127.46-.085.315-.174.64-.282.948-.089.23-.198.452-.328.663-.056.112-.118.225-.177.339-.19.151-.332.355-.41.586l-.212-.125a4.218 4.218 0 0 1-.458-.295 11.72 11.72 0 0 1-.455-.357c-.236-.191-.479-.395-.73-.574a2.21 2.21 0 0 0 0-.562c-.009-.084-.02-.167-.02-.243l-.074-2.653c.16-.008.319-.03.475-.067.086-.02.184-.046.264-.046l.177-.012c.224.002.446-.044.651-.134.438-.226.388-.667.355-.96l-.01-.095c-.132-1.313-.201-2.661-.268-3.966z"/><path fill="#D40058" d="M29.46 22.01v-.001a.496.496 0 1 1 0 .99c-2.605 0-5.089-1.117-6.998-3.146a.52.52 0 0 1-.111-.56.496.496 0 0 1 .452-.293c.15.002.292.067.392.178 1.715 1.828 3.938 2.833 6.264 2.833Zm2.004-20.048v.004A.485.485 0 0 1 31.516 1h.06a8.799 8.799 0 0 1 5.68 2.974.484.484 0 0 1-.37.8.487.487 0 0 1-.372-.167 7.829 7.829 0 0 0-5.05-2.645Zm.045 11.462a13.376 13.376 0 0 0-.482-.116v-2.2c.428.108.666.29.766.585.08.264.133.534.161.808.033.332.1.658.204.975l.041.102a9.569 9.569 0 0 1-.69-.154Zm.864-1.935c-.227-.658-.816-.894-1.337-1.008V8.229a7.448 7.448 0 0 1 6.592 3.952l-.426.336c-.045.036-.092.08-.14.122-.063.06-.132.117-.204.166h-.021a32.327 32.327 0 0 1-1.284-.75.23.23 0 0 0-.252.382l.07.034-.383.136-.11.036a.66.66 0 0 0-.484.4c-.022.047-.049.12-.076.2a3.095 3.095 0 0 1-.15.376c-.197.01-.834 0-1.27 0a3.476 3.476 0 0 1-.158-.358 4.183 4.183 0 0 1-.18-.847 4.79 4.79 0 0 0-.187-.925Zm.567 11.216a.097.097 0 0 0-.018.016 7.616 7.616 0 0 1-1.09.207c-.268.029-.4.09-.6-.045a.436.436 0 0 1-.205-.357v-4.862l2.112 4.649a5.366 5.366 0 0 0-.199.392Zm2.54-3.988c.392.594 1.024.975 1.559 1.243a7.426 7.426 0 0 1-1.611 1.586l-.444-.628a.23.23 0 0 0-.338-.04l-1.144.992-.036.035-2.432-5.352V13.78c.122.029.245.057.369.09.34.093.685.161 1.034.203.256.477.61.895 1.038 1.225.258.186.852.511 1.332.41a.716.716 0 0 0 .485-.358c.109-.223.17-.467.179-.715.059-.737.28-.796.426-.7.284.19.12.673-.1 1.165l-.045.102a6.89 6.89 0 0 0-.596 1.727 2.464 2.464 0 0 0 .324 1.788ZM38 13.941c.102.052.206.09.308.136a7.315 7.315 0 0 1-.935 5.377h-.01c-.476-.243-1.044-.578-1.371-1.073a1.842 1.842 0 0 1-.231-1.348c.11-.545.294-1.072.544-1.569l.045-.102c.191-.425.583-1.43-.199-1.888-1.348-.788-1.006 1.365-1.401 1.592-.027.014-.033.043-.079.053-.199.04-.601-.123-.84-.302-.262-.2-.49-.442-.674-.715h.428c.263.015.528-.002.787-.052.167-.095.258-.327.369-.642.023-.066.043-.125.06-.163.045-.102.053-.103.206-.154l.124-.039.589-.21.078-.031c.024-.011.067-.032.056-.032.043.009.773.436.773.436l.537.295a.22.22 0 0 0 .115.03.226.226 0 0 0 .198-.116.229.229 0 0 0-.086-.313l-.107-.059.077-.068c.041-.036.08-.073.12-.104l.345-.277c.133.297.246.603.34.914a.228.228 0 0 0-.166.424Zm-2.957 7.868c-.472.299-.976.544-1.503.73a1.31 1.31 0 0 1 .256-.32l.952-.829.295.419ZM26.3 11.917l-1.736-1.518a12.485 12.485 0 0 0-1.591-4.714l1.356 1.152c.096.079.16.19.18.312.075.282.129.569.16.859.031.253.075.505.13.754.12.636.417 1.226.856 1.7a2.942 2.942 0 0 0 2.157.908c.142 0 .283-.01.424-.027.54-.068 1.08-.168 1.602-.277v1.966l-2.815-.774a2.174 2.174 0 0 0-.18-.044 1.445 1.445 0 0 1-.303-.086.746.746 0 0 1-.15-.127l-.09-.084Zm.608.783 2.937.808v2.094a7.34 7.34 0 0 1-5.269-2.26c.054-.463.081-.928.083-1.393 0-.297-.013-.59-.033-.882l1.371 1.197.072.066c.077.082.166.152.265.207.131.06.27.102.413.125.057.013.111.024.161.038Zm2.488-11.691c.485-.027.45.52.45.52v8.925c-.549.114-1.116.223-1.678.293a2.38 2.38 0 0 1-2.063-.695 2.82 2.82 0 0 1-.702-1.418c-.052-.215-.082-.438-.115-.673l.035.022c.222.173.489.28.77.31.184 0 .365-.052.523-.148.135-.075.197-.09.256-.075.223.076.431.188.616.333.1.075.113.084-.054.392l-.043.08a.307.307 0 0 0 .272.449.302.302 0 0 0 .27-.165l.042-.075c.145-.277.417-.77-.12-1.171a2.667 2.667 0 0 0-.807-.438.922.922 0 0 0-.695.116.476.476 0 0 1-.247.082c-.383-.037-.88-.443-.934-.443-.021-.093-.043-.157-.071-.25a1.103 1.103 0 0 0-.37-.605L23.346 5.2a.31.31 0 0 0-.127-.06 7.39 7.39 0 0 1 2-2.516l.012.026a.23.23 0 0 0 .21.135.22.22 0 0 0 .094-.02.23.23 0 0 0 .115-.304l-.056-.122a7.31 7.31 0 0 1 3.8-1.33Zm4.653 10.123a.229.229 0 0 0 .018.323c.152.138.308.276.465.41a.23.23 0 0 0 .297-.352 16.095 16.095 0 0 1-.454-.4.231.231 0 0 0-.326.019Zm-.716-1.06v.003a.23.23 0 0 0-.381.256c.045.063.094.123.149.178l.179.18.11.117a.226.226 0 0 0 .167.072c.059 0 .116-.023.16-.063a.232.232 0 0 0 .008-.325l-.11-.116c-.063-.056-.12-.119-.18-.18a1.096 1.096 0 0 1-.102-.123ZM32.275 8.68l.003.004a.227.227 0 0 0-.037.318c.113.148.21.309.286.48a.23.23 0 0 0 .424-.026.227.227 0 0 0-.01-.175 2.844 2.844 0 0 0-.344-.569.227.227 0 0 0-.322-.032ZM26.087 4.2c.028.003.056 0 .083-.008a.229.229 0 0 0 .122-.302 7.165 7.165 0 0 0-.119-.269l-.13-.312a.23.23 0 0 0-.417.19l.136.303c.04.08.077.172.114.26a.23.23 0 0 0 .211.139Zm.843 1.337a.229.229 0 0 0 .058-.32 4.861 4.861 0 0 1-.313-.505.23.23 0 0 0-.407.215c.022.043.045.084.068.125.086.15.183.293.274.426a.23.23 0 0 0 .32.059Zm1.23.969a.229.229 0 0 0-.156-.29l-.227-.071a.895.895 0 0 1-.247-.111.326.326 0 0 1-.048-.05.23.23 0 0 0-.358.286c.037.048.08.092.129.13.12.081.254.142.395.179l.075.023.056.018.095.03a.236.236 0 0 0 .157 0 .23.23 0 0 0 .129-.144Zm1.35.55a.23.23 0 0 0-.13-.298l-.578-.229a.23.23 0 0 0-.168.427l.577.23a.23.23 0 0 0 .299-.129Z"/></g></svg>