<svg width="419" height="175" fill="none" xmlns="http://www.w3.org/2000/svg">
  <g clip-path="url(#a)">
    <path d="M418.8 0H0v174.2h418.8V0Z" fill="#fff"/>
    <path d="M104.7 81V38.8a.9.9 0 0 1 .9-1h8a.9.9 0 0 1 1 1V56h15.1V39a.9.9 0 0 1 1-1h8a1 1 0 0 1 1 1V81a1 1 0 0 1-1 1h-8a.9.9 0 0 1-1-1V64.8h-15.1V81a.9.9 0 0 1-1 1h-8a.9.9 0 0 1-1-1ZM143.3 66.4c0-9 6.3-16 15.8-16 9.6 0 15 6.8 15 14.7 0 3.2-.8 5-3.7 5h-17.8c1.1 3.4 4 5 8.4 5a13 13 0 0 0 6.8-1.7c.5-.2.8-.1 1.2.3l2.6 3.7a1 1 0 0 1 0 1.1l-.4.3c-2.6 2.6-6.6 3.9-11 3.9-10 0-17-6.9-17-16.3Zm22.2-3c-.6-3.6-3-5.1-6.3-5.1-3.2 0-6 1.5-6.7 5.2h13ZM177 81V38a.9.9 0 0 1 .5-1h8.2a1 1 0 0 1 1 1V81a1 1 0 0 1-1 1h-7.8a.9.9 0 0 1-1-1ZM191.2 93V52a.9.9 0 0 1 .9-1h7a1 1 0 0 1 1 1l.1 3a11 11 0 0 1 9.7-4.7c8.6 0 14.5 7 14.5 16.2s-6 16.2-14.5 16.2a11.2 11.2 0 0 1-9-3.9V93a1 1 0 0 1-1 1H192a.9.9 0 0 1-1-1Zm16.6-19c4 0 7.2-2.9 7.2-7.4 0-4.6-3.1-7.5-7.2-7.5s-7 3-7 7.4 2.8 7.5 7 7.5ZM239.7 81V58.5h-3.6a.9.9 0 0 1-1-1V52a.9.9 0 0 1 1-.9h3.6v-4.4c0-7.5 4.2-10.8 11.1-10.8 1.8 0 3.6.3 5.2 1a1.1 1.1 0 0 1 .5 1v6.5c0 .4-.3.5-.8.4-.9-.2-1.7-.3-2.6-.3-3 0-3.7 1.5-3.7 3.5v3.1h6.2a.9.9 0 0 1 1 1v5.5a.9.9 0 0 1-.6 1H249.4V81a1 1 0 0 1-1 .9h-7.7a.9.9 0 0 1-1-1Z" fill="#008369"/>
    <path d="M255.7 66.5a16.2 16.2 0 1 1 16.2 16.2 15.8 15.8 0 0 1-16.2-16.2Zm16.2 7.4c3.9 0 6.9-2.8 6.9-7.4 0-4.5-3-7.3-7-7.3-3.9 0-6.9 2.8-6.9 7.3 0 4.6 3 7.4 7 7.4ZM291 81V52a.9.9 0 0 1 1-1h7.4c.5 0 .8.3.9 1l.3 4.2c1-3.4 3-5.9 6.6-5.9 1 0 2 .2 2.8.8a1.4 1.4 0 0 1 .6 1.3v6.3c0 .8-.5 1-1.4.8-.7-.3-1.5-.4-2.2-.4-4 0-6.4 2.4-6.4 7v15a1 1 0 0 1-1 .8H292a.9.9 0 0 1-.9-.9ZM58.5 136.6V94.4a.9.9 0 0 1 1-1h8a.9.9 0 0 1 1 1v17.1h15V94.4a.9.9 0 0 1 1-1h8a1 1 0 0 1 1 1v42.2a1 1 0 0 1-1 1h-8a.9.9 0 0 1-1-1v-16.2h-15v16.3a.9.9 0 0 1-1 .9h-8a.9.9 0 0 1-.7-.3.9.9 0 0 1-.3-.7ZM97.1 122.1a16.2 16.2 0 1 1 16.3 16.2A15.8 15.8 0 0 1 97 122.1Zm16.3 7.4c3.9 0 6.9-2.8 6.9-7.4 0-4.5-3-7.3-7-7.3-3.9 0-6.9 2.8-6.9 7.3 0 4.6 3 7.4 7 7.4Z" fill="#008369"/>
    <path d="M132.2 125.5v-17.9a.9.9 0 0 1 .9-.9h7.7a1 1 0 0 1 1 1v15.6c0 4 1.7 6.2 5.1 6.2 3.4 0 5.5-2.1 5.5-6.2v-15.7a1 1 0 0 1 1-.9h7.6a1 1 0 0 1 1 1v29a1 1 0 0 1-1 .9h-7.4c-.5 0-1-.3-1-1l-.2-3.6a9.8 9.8 0 0 1-9.1 5.3c-6.5 0-11.2-4.7-11.2-12.8ZM165.4 133.1a1.7 1.7 0 0 1 .2-1.8l2.5-3.6c.5-.8 1-.6 1.6-.3 2.7 2 4.8 3 7 3 1.7 0 2.8-.7 2.8-2s-.7-1.9-2.8-2.7l-4-1.7c-4-1.5-6.6-4.2-6.6-8.5 0-6 5.1-9.5 11-9.5a14 14 0 0 1 10.7 4.8 1 1 0 0 1 0 1.3l-3.3 3.8c-.4.5-.8.4-1.4 0-2-1.6-3.7-2.4-5.4-2.4-2 0-2.5 1-2.5 2s1 1.8 2.5 2.4l4.6 1.8c3.9 1.5 7 4.3 6.8 9 0 6.4-5.5 9.6-11.8 9.6a15.2 15.2 0 0 1-11.9-5.2ZM190.5 122c0-9 6.3-16 15.9-16 9.5 0 14.9 6.8 14.9 14.8 0 3.1-.8 5-3.7 5H200c1 3.3 4 5 8.3 5a13 13 0 0 0 6.9-1.8c.5-.2.7 0 1 .4l2.7 3.6a1 1 0 0 1-.3 1.4c-2.7 2.7-6.7 4-11 4-10.1 0-17-7-17-16.4Zm22.2-2.9c-.6-3.7-3-5.2-6.3-5.2-3.2 0-5.9 1.6-6.7 5.2h13ZM224.2 136.6V93.5a.9.9 0 0 1 1-1h7.6a1 1 0 0 1 1 1v17.8a9.8 9.8 0 0 1 9-5.4c6.4 0 11.2 4.8 11.2 12.8v18a1 1 0 0 1-1 .9h-7.6a1 1 0 0 1-1-1V121c0-4-1.8-6.2-5.2-6.2-3.4 0-5.4 2.1-5.4 6.2v15.6a1 1 0 0 1-1 1h-7.7a.9.9 0 0 1-.6-.3.9.9 0 0 1-.3-.7ZM257 122.1a16.2 16.2 0 1 1 16.1 16.2 15.8 15.8 0 0 1-16.2-16.2Zm16.1 7.4c4 0 7-2.8 7-7.4 0-4.5-3-7.3-7-7.3-3.9 0-6.9 2.8-6.9 7.3 0 4.6 3 7.4 7 7.4ZM292.3 136.6V93.5a.9.9 0 0 1 1-1h7.7a1 1 0 0 1 1 1v43.1a1 1 0 0 1-1 1h-7.8a.9.9 0 0 1-1-1ZM304.9 122.1c0-9.1 6-16.2 14.5-16.2 4 0 7 1.4 9 3.9V93.5a.9.9 0 0 1 .6-1h8.2a1 1 0 0 1 1 1v43.1a1 1 0 0 1-.4.7 1 1 0 0 1-.7.3h-7a1 1 0 0 1-1-1v-3a11.1 11.1 0 0 1-9.7 4.8c-8.6 0-14.5-7-14.5-16.3Zm16.6 7.5c4.2 0 7-3 7-7.5s-2.8-7.4-7-7.4c-4.3 0-7.2 3-7.2 7.4 0 4.5 3 7.5 7.2 7.5ZM341.6 133.1a1.7 1.7 0 0 1 .1-1.8l2.6-3.6c.5-.8 1-.6 1.5-.3 2.8 2 4.8 3 7 3 1.7 0 2.9-.7 2.9-2s-.8-1.9-2.8-2.7l-4-1.7c-4-1.5-6.7-4.2-6.7-8.5 0-6 5.2-9.5 11.1-9.5a13.9 13.9 0 0 1 10.7 4.8 1 1 0 0 1 0 1.3l-3.3 3.8c-.4.5-.9.4-1.4 0-2-1.6-3.8-2.4-5.5-2.4-1.9 0-2.4 1-2.4 2s1 1.8 2.4 2.4l4.7 1.8c3.8 1.5 7 4.3 6.8 9 0 6.4-5.6 9.6-11.8 9.6a15.2 15.2 0 0 1-12-5.2Z" fill="#008369"/>
    <path d="M408.4 165.3H10.3V9h398.1v156.3Zm-393.1-5h388.1V14H15.3v146.3Z" fill="#008369"/>
  </g>
  <defs>
    <clipPath id="a">
      <path fill="#fff" d="M0 0h418.8v174.2H0z"/>
    </clipPath>
  </defs>
</svg>
