<svg xmlns="http://www.w3.org/2000/svg" width="171" height="109">
  <g fill="#B31424" fill-rule="evenodd">
    <path d="M82.0334331 3.34379687L127.385313 53.3358253c.691412.7621543.691644 1.9245738.000535 2.6870035L82.3948322 105.656793c-.7418325.818388-.6797724 2.083196.1386152 2.825029.3678888.333475.846671.518178 1.3432067.518178h36.8923289c.839675 0 1.640919-.351899 2.209045-.970192l46.534281-50.6433635c1.406505-1.5307033 1.406094-3.883639-.000946-5.4138508L122.613582.96942C122.045487.35159413 121.244557 0 120.405247 0H83.5147197c-1.1045695 0-2 .8954305-2 2 0 .4968105.1849072.9758375.5187134 1.34379687z"/>
    <path d="M0 0l.3643618 109h41.4046216c.8396747 0 1.6409186-.351899 2.2090448-.970192l46.5342804-50.6433635c1.4065057-1.5307033 1.4060946-3.883639-.000946-5.4138508L43.6135822.96942C43.0454869.35159413 42.2445567 0 41.4052469 0H0z"/>
  </g>
</svg>
