<svg fill="none" height="52" width="231" xmlns="http://www.w3.org/2000/svg" xmlns:xlink="http://www.w3.org/1999/xlink"><clipPath id="a"><path d="m0 0h231v52h-231z"/></clipPath><g clip-path="url(#a)"><path d="m89.812 31.86 3.985.35-.436 4.98-1.993-.174-1.992-.174.436-4.981z" fill="#005a30"/><path d="m96.048 40.893c-.24 2.751-3.101 9.767-5.852 9.526-2.751-.24-4.35-7.646-4.11-10.397a5 5 0 1 1 9.962.871z" fill="#d4351c"/><path clip-rule="evenodd" d="m89.71 36.741a3.875 3.875 0 0 0 -2.625 3.336c-.138 1.583.51 5.154 1.725 6.965l.9-10.3z" fill="#fff" fill-rule="evenodd" opacity=".4"/><path d="m65.633 27.793 3.939.695-.868 4.923-1.97-.347-1.97-.347z" fill="#005a30"/><path d="m71.058 37.334c-.48 2.72-3.94 9.46-6.66 8.98s-3.667-7.996-3.188-10.716a5 5 0 0 1 9.848 1.736z" fill="#fd0"/><path clip-rule="evenodd" d="m65.107 32.646a3.875 3.875 0 0 0 -2.907 3.094c-.275 1.565.058 5.179 1.111 7.089z" fill="#fff" fill-rule="evenodd" opacity=".4"/><path d="m17.276 9.872 3.76 1.369-1.71 4.698-1.88-.684-1.88-.684z" fill="#005a30"/><path d="m20.963 20.211c-.945 2.595-5.524 8.632-8.119 7.687-2.595-.944-2.223-8.512-1.278-11.107a5 5 0 0 1 9.397 3.42z" fill="#d53880"/><path clip-rule="evenodd" d="m15.916 14.56a3.875 3.875 0 0 0 -3.4 2.543c-.543 1.493-.842 5.11-.137 7.174z" fill="#fff" fill-rule="evenodd" opacity=".4"/><path d="m41.456 19.797 3.864 1.035-1.294 4.83-1.932-.518-1.932-.518 1.294-4.83z" fill="#005a30"/><path d="m46.03 29.775c-.715 2.667-4.75 9.08-7.418 8.365s-2.956-8.286-2.242-10.953a5 5 0 1 1 9.66 2.588z" fill="#85994b"/><path clip-rule="evenodd" d="m40.51 24.585a3.875 3.875 0 0 0 -3.165 2.83c-.412 1.534-.394 5.164.488 7.158l2.676-9.988z" fill="#fff" fill-rule="evenodd" opacity=".4"/><path d="m114 33h4v5h-4z" fill="#005a30"/><path d="m121 41.455c0 2.761-2.239 10-5 10s-5-7.239-5-10a5 5 0 0 1 10 0z" fill="#1d70b8"/><path clip-rule="evenodd" d="m114.325 37.87a3.875 3.875 0 0 0 -2.325 3.554c0 1.588.956 5.09 2.325 6.788z" fill="#fff" fill-rule="evenodd" opacity=".4"/><path d="m142.187 31.86-3.985.35.436 4.98 1.992-.174 1.993-.174-.436-4.981z" fill="#005a30"/><path d="m135.951 40.893c.24 2.751 3.101 9.767 5.852 9.526 2.751-.24 4.35-7.647 4.109-10.397a4.999 4.999 0 1 0 -9.961.871z" fill="#f47738"/><path clip-rule="evenodd" d="m142.288 36.742a3.875 3.875 0 0 1 2.625 3.335c.139 1.583-.509 5.154-1.724 6.965z" fill="#fff" fill-rule="evenodd" opacity=".4"/><path d="m166.305 27.501-3.879.986.868 4.924 1.97-.347 1.969-.347z" fill="#005a30"/><path d="m160.94 37.334c.479 2.72 3.941 9.46 6.66 8.98 2.72-.48 3.667-7.996 3.188-10.716a5 5 0 0 0 -9.848 1.736z" fill="#f499be"/><path clip-rule="evenodd" d="m166.891 32.646a3.874 3.874 0 0 1 2.906 3.094c.276 1.565-.058 5.179-1.11 7.089z" fill="#fff" fill-rule="evenodd" opacity=".4"/><path d="m214.605 9.629-3.644 1.612 1.71 4.698 1.879-.684 1.88-.684z" fill="#005a30"/><path d="m211.033 20.211c.945 2.595 5.524 8.632 8.119 7.687 2.595-.944 2.222-8.512 1.278-11.107a5 5 0 1 0 -9.397 3.42z" fill="#fd0"/><path clip-rule="evenodd" d="m216.08 14.56a3.874 3.874 0 0 1 3.399 2.543c.544 1.493.843 5.11.138 7.174z" fill="#fff" fill-rule="evenodd" opacity=".4"/><path d="m190.541 19.797-3.864 1.035 1.294 4.83 1.932-.518 1.932-.518-1.294-4.83z" fill="#005a30"/><path d="m185.967 29.775c.715 2.667 4.751 9.08 7.418 8.365s2.956-8.286 2.241-10.953a4.999 4.999 0 1 0 -9.659 2.588z" fill="#d4351c"/><path clip-rule="evenodd" d="m191.488 24.585a3.875 3.875 0 0 1 3.164 2.83c.411 1.534.394 5.164-.488 7.158z" fill="#fff" fill-rule="evenodd" opacity=".4"/><path d="m346-198.588c0 128.13-111.265 232-231 232-117.432 0-231-103.87-231-232" stroke="#005a30"/></g></svg>