<svg width="79" height="28" viewBox="0 0 79 28" fill="none" xmlns="http://www.w3.org/2000/svg">
<g filter="url(#filter0_f_4_31)">
<path d="M39.3542 5C20.3831 5 5 7.88207 5 11.4364C5 13.7593 11.5724 15.795 21.4208 16.926L33.901 21.6075C35.1897 21.9938 37.3737 22.2327 39.5984 22.2276C41.545 22.2225 43.417 22.037 44.7261 21.7307C49.2094 20.1219 53.5504 18.4916 57.8709 16.8587C67.3938 15.715 73.7017 13.7135 73.7017 11.4364C73.7017 7.88207 58.3186 5 39.3474 5H39.3542ZM39.3542 14.6501C30.2926 14.6501 22.9402 13.2739 22.9402 11.5749C22.9402 9.87588 30.2858 8.49965 39.3542 8.49965C48.4227 8.49965 55.7683 9.87588 55.7683 11.5749C55.7683 13.2739 48.4227 14.6501 39.3542 14.6501Z" fill="#082742"/>
</g>
<defs>
<filter id="filter0_f_4_31" x="0" y="0" width="78.7017" height="27.2277" filterUnits="userSpaceOnUse" color-interpolation-filters="sRGB">
<feFlood flood-opacity="0" result="BackgroundImageFix"/>
<feBlend mode="normal" in="SourceGraphic" in2="BackgroundImageFix" result="shape"/>
<feGaussianBlur stdDeviation="2.5" result="effect1_foregroundBlur_4_31"/>
</filter>
</defs>
</svg>
