<svg width="77" height="100" viewBox="0 0 77 100" fill="none" xmlns="http://www.w3.org/2000/svg">
<path d="M38.5029 2V2.00098C58.6509 2.00439 75 18.2816 75 38.3721C74.9999 51.045 68.4972 62.2021 58.6455 68.708C54.3858 77.266 50.0988 85.8243 45.6699 94.2744L45.5791 94.4473L45.457 94.5996C43.8151 96.6419 41.3976 97.9626 38.7764 97.999H38.7725C35.7635 98.0354 32.9533 96.3352 31.332 93.751L31.2812 93.6699L31.2383 93.584L18.957 69.0879C8.772 62.6442 2.00011 51.2976 2 38.3721C2 18.2816 18.3491 2.00439 38.4971 2.00098V2H38.5029Z" fill="#1D70B8" stroke="white" stroke-width="4"/>
</svg>
