<?xml version="1.0" encoding="UTF-8"?><svg id="Layer_1" xmlns="http://www.w3.org/2000/svg" viewBox="0 0 960 640"><path d="M604.28,234.51c-17.94,7.4-38.31-1.06-45.62-18.8-7.35-17.69,1.06-38.26,19-45.62,17.6-7.23,38.05,1.4,45.36,19.16,7.31,17.66-1.14,38.05-18.74,45.26"/><path d="M493.44,357.89c-17.94,7.4-38.31-1.06-45.62-18.8-7.35-17.69,1.06-38.26,19-45.62,17.6-7.23,38.05,1.4,45.36,19.16,7.31,17.66-1.14,38.05-18.74,45.26"/><path d="M697.59,290.19c-17.94,7.4-38.31-1.06-45.6-18.8-7.35-17.69,1.06-38.26,18.99-45.62,17.6-7.21,38.05,1.4,45.37,19.18,7.31,17.66-1.16,38.03-18.76,45.24"/><path d="M759.37,382.14c-17.94,7.4-38.31-1.06-45.62-18.8-7.35-17.69,1.06-38.26,19-45.62,17.58-7.21,38.05,1.4,45.36,19.16,7.33,17.68-1.14,38.05-18.74,45.26"/><path d="M498.47,123.56l.09-.09,44.1,23.14v-64.99l-44.05,13.95-.13-.13c-1.23-1.63-2.66-3.08-4.27-4.33l-.11-.13,17.71-55.76h-63.64l17.73,55.78-.13.13c-1.59,1.25-3.04,2.7-4.27,4.33l-.13.13-44.03-13.95v64.99l44.1-23.14.09.09c1.31,1.71,2.83,3.23,4.56,4.52l-25.33,76.4s-.06.19-.09.28v.08h0c-1.18,3.82-1.82,7.86-1.82,12.06,0,20.67,15.26,37.72,35.1,40.65.28.04.59.09.89.13,1.69.23,3.4.36,5.16.36s3.46-.15,5.16-.36c.28-.04.59-.09.87-.13,19.86-2.92,35.12-19.99,35.12-40.65,0-4.2-.65-8.24-1.8-12.06s-.02-.09-.02-.09c-.02-.09-.06-.19-.09-.28l-25.31-76.4c1.71-1.29,3.25-2.81,4.56-4.52"/><path d="M355.12,234.51c17.94,7.4,38.31-1.06,45.62-18.8,7.35-17.69-1.06-38.26-19-45.62-17.6-7.23-38.05,1.4-45.36,19.16-7.31,17.66,1.14,38.05,18.74,45.26"/><path d="M261.8,290.19c17.94,7.4,38.31-1.06,45.6-18.8,7.35-17.69-1.06-38.26-18.99-45.62-17.6-7.21-38.05,1.4-45.37,19.18-7.31,17.66,1.16,38.03,18.76,45.24"/><path d="M200.03,382.14c17.94,7.4,38.31-1.06,45.62-18.8,7.35-17.69-1.06-38.26-19-45.62-17.58-7.21-38.05,1.4-45.36,19.16-7.33,17.68,1.14,38.05,18.74,45.26"/><path d="M479.94,589.06c83.48,0,162.49,5.66,232.89,15.72,19.97-84.03,44.29-132.16,69.43-166.44l-47.29-16.84c4.71,24.02,5.45,35.18.19,50.63-7.8-7.63-15.19-21.64-20.96-43.08l-22.9,76.3c13.94-9.59,24.7-15.8,36.98-16.1-21.81,46.99-49.06,59.08-66.71,55.82-21.55-3.95-31.46-23.18-28.12-39.49,4.97-23.1,28.67-29.12,39.74-2.26,21.17-43.19-14.75-56.65-37.88-43.87,35.5-35.43,39.57-66.9,10.92-105.01-39.94,30.53-40.42,60.77-22.44,103.3-23.31-26.69-59.61-12.36-46.49,30.76,16.82-26.05,39.09-9.66,35.58,15.07-2.96,21.55-31.42,38.96-66.85,35.88-50.79-4.61-53.8-39.64-55.08-68.65,12.47-2.32,34.97,9.26,54.13,36.19l7.06-80.93c-20.85,21.74-39.79,25.86-60.85,26.52,7.01-21.87,39.2-57.68,39.2-57.68h-101.02s32.2,35.81,39.2,57.68c-21.04-.66-39.98-4.78-60.85-26.52l7.06,80.93c19.18-26.92,41.65-38.48,54.15-36.19-1.25,29.01-4.29,64.06-55.08,68.65-35.45,3.08-63.89-14.31-66.85-35.88-3.49-24.74,18.78-41.12,35.6-15.07,13.12-43.13-23.2-57.45-46.51-30.76,17.98-42.55,17.5-72.77-22.44-103.3-28.67,38.1-24.6,69.6,10.9,105.01-23.12-12.78-59.04.68-37.86,43.87,11.07-26.88,34.78-20.85,39.74,2.26,3.34,16.31-6.59,35.52-28.14,39.49-17.66,3.27-44.9-8.83-66.71-55.82,12.3.28,23.05,6.49,37,16.1l-22.92-76.3c-5.77,21.43-13.16,35.46-20.96,43.08-5.28-15.43-4.52-26.62.19-50.63l-47.27,16.84c25.12,34.27,49.44,82.41,69.41,166.42,70.38-10.06,149.34-15.72,232.8-15.72"/></svg>